<svg viewBox="0 0 28 28" fill="none" xmlns="http://www.w3.org/2000/svg">
<path d="M13.9531 25.9062C20.4922 25.9062 25.9062 20.4805 25.9062 13.9531C25.9062 7.41406 20.4805 2 13.9414 2C7.41406 2 2 7.41406 2 13.9531C2 20.4805 7.42578 25.9062 13.9531 25.9062ZM13.9531 23.9141C8.42188 23.9141 4.00391 19.4844 4.00391 13.9531C4.00391 8.42188 8.41016 3.99219 13.9414 3.99219C19.4727 3.99219 23.9141 8.42188 23.9141 13.9531C23.9141 19.4844 19.4844 23.9141 13.9531 23.9141ZM11.2812 19.7539C11.5859 20.0469 12.1953 20.0234 12.5234 19.7188L17.3984 15.1133C18.0664 14.5039 18.0664 13.4258 17.3984 12.8164L12.5234 8.21094C12.1602 7.87109 11.6211 7.85938 11.293 8.17578C10.918 8.51562 10.9062 9.10156 11.2695 9.42969L16.0859 13.9531L11.2695 18.5C10.918 18.8281 10.918 19.3906 11.2812 19.7539Z" />
</svg>
