<svg viewBox="0 0 28 28" fill="none" xmlns="http://www.w3.org/2000/svg">
<path d="M5.19922 25.2656H23.3633C25.3555 25.2656 26.5625 23.8828 26.5625 22.0898C26.5625 21.5391 26.3984 20.9648 26.1055 20.4492L17.0117 4.60547C16.4023 3.53906 15.3594 3 14.2812 3C13.2031 3 12.1484 3.53906 11.5508 4.60547L2.45703 20.4492C2.14062 20.9766 2 21.5391 2 22.0898C2 23.8828 3.20703 25.2656 5.19922 25.2656ZM5.21094 23.4258C4.39062 23.4258 3.89844 22.793 3.89844 22.0781C3.89844 21.8555 3.94531 21.5742 4.07422 21.3281L13.1562 5.49609C13.4023 5.0625 13.8477 4.875 14.2812 4.875C14.7148 4.875 15.1484 5.0625 15.3945 5.49609L24.4766 21.3398C24.6055 21.5859 24.6641 21.8555 24.6641 22.0781C24.6641 22.793 24.1484 23.4258 23.3398 23.4258H5.21094ZM14.2812 17.3672C14.8438 17.3672 15.1719 17.0391 15.1836 16.4297L15.3477 10.2539C15.3594 9.65625 14.8906 9.21094 14.2695 9.21094C13.6367 9.21094 13.1914 9.64453 13.2031 10.2422L13.3555 16.4297C13.3672 17.0273 13.6953 17.3672 14.2812 17.3672ZM14.2812 21.1758C14.9609 21.1758 15.5469 20.6367 15.5469 19.957C15.5469 19.2656 14.9727 18.7383 14.2812 18.7383C13.5898 18.7383 13.0156 19.2773 13.0156 19.957C13.0156 20.625 13.6016 21.1758 14.2812 21.1758Z" />
</svg>
