<svg viewBox="0 0 28 28" fill="none" xmlns="http://www.w3.org/2000/svg">
<path d="M5.10938 12.6172H11.6133C12.8086 12.6172 13.5 11.9141 13.5 10.7188V4.22656C13.5 3.61719 13.043 3.13672 12.4219 3.13672C11.8008 3.13672 11.3555 3.60547 11.3555 4.22656V5.21094L11.6016 9.30078L8.50781 6.05469L4.91016 2.42187C4.71094 2.21094 4.44141 2.10547 4.16016 2.10547C3.49219 2.10547 3 2.55078 3 3.20703C3 3.51172 3.11719 3.80469 3.32812 4.01562L6.9375 7.625L10.1836 10.707L6.09375 10.4727H5.10938C4.48828 10.4727 4.00781 10.9062 4.00781 11.5391C4.00781 12.1602 4.47656 12.6172 5.10938 12.6172ZM16.3477 24.5117C16.9688 24.5117 17.4141 24.0547 17.4141 23.4219V22.3086L17.168 18.2305L20.2617 21.4766L23.9414 25.1797C24.1406 25.3906 24.3984 25.4961 24.6914 25.4961C25.3477 25.4961 25.8398 25.0508 25.8398 24.3945C25.8398 24.0898 25.7344 23.7969 25.5234 23.5859L21.832 19.8945L18.5742 16.8125L22.6758 17.0469H23.7891C24.4102 17.0469 24.8906 16.6133 24.8906 15.9922C24.8906 15.3594 24.4219 14.9141 23.7891 14.9141H17.1562C15.9609 14.9141 15.2695 15.6055 15.2695 16.8008V23.4219C15.2695 24.043 15.7148 24.5117 16.3477 24.5117Z" />
</svg>
